<svg xmlns="http://www.w3.org/2000/svg" xmlns:xlink="http://www.w3.org/1999/xlink" width="320" height="320" fill="none" xmlns:v="https://vecta.io/nano"><style><![CDATA[.B{fill:#fff}.C{stroke-miterlimit:10}.D{fill:#27bfab}.E{stroke:#263238}.F{stroke-linecap:round}.G{stroke-linejoin:round}.H{opacity:.5}.I{fill:#263238}]]></style><use xlink:href="#M" class="D"/><g class="B"><use xlink:href="#M" opacity=".7"/><use xlink:href="#N"/></g><mask id="A" maskUnits="userSpaceOnUse" x="55" y="179" width="92" height="71"><path d="M96.593 222.058c-8.526 2.199-20.524 11.712-26.136 15.323s-8.015 10.721-10.311 12.063-6.023-6.429-3.317-10.322 5.16-4.045 5.373-6.237-.531-3.862 1.643-6.094 4.987 1.555 9.531.263 11.92-10.956 20.357-20.821 18.001-6.348 19.744-7.734 16.045-22.291 22.259-18.903 14.187 19.099 8.228 24.183-10.358 3.426-16.945 5.29-6.201 2.851-11.045 5.45-7.621 2.369-9.674 2.234c0 0-3.654 2.018-6.035 3.612s-3.673 1.693-3.673 1.693z" class="B"/></mask><g mask="url(#A)"><use xlink:href="#O" class="D"/><use xlink:href="#O" class="B H"/></g><use xlink:href="#N" class="C E"/><use xlink:href="#P" class="D"/><mask id="B" maskUnits="userSpaceOnUse" x="55" y="211" width="41" height="39"><path d="M95.398 222.41a14.41 14.41 0 0 1-4.131-2.583c-2.389-2.113-2.458-5.507-1.957-8.322-6.559 7.812-12.191 14.5-15.885 15.565-4.544 1.292-7.358-2.495-9.531-.263s-1.463 3.89-1.643 6.094-2.642 2.361-5.373 6.238 1 11.656 3.317 10.321 4.706-8.449 10.311-12.062c5.345-3.452 16.474-12.276 24.893-14.988z" class="B"/></mask><g mask="url(#B)"><path opacity=".2" d="M60.147 249.444c.135-.082.263-.176.383-.28l.096-.081.379-.379s.021-.061.064-.077l.336-.408c.038-.044.074-.09.107-.138l.391-.527.135-.196.302-.444.144-.223a18.5 18.5 0 0 1 2.119-9.129c3.152-6.59 13.349-9.563 16.949-12.94a83.43 83.43 0 0 1 8.34-6.61c-1.004-1.977-.95-4.413-.574-6.528l-1.114 1.319-.183.226-1.114 1.319-1.048 1.236-.176.205-1.011 1.172-.176.206-1.011 1.172-.977 1.093-.182.203-.933 1.009-.146.163-.86.905-.094.097-.876.885c-.059.063-.123.117-.178.167l-.844.812-.1.095-.77.685-.118.104c-.267.228-.52.437-.777.638l-.153.115c-.257.2-.508.381-.747.549l-.066.039c-.228.157-.457.299-.676.429l-.123.072a7.51 7.51 0 0 1-.669.342l-.125.056c-.211.091-.427.17-.648.235-1.243.348-2.555.367-3.807.057-.702-.163-1.287-.361-1.866-.55a10.98 10.98 0 0 0-1.622-.444 2.33 2.33 0 0 0-2.256.666 5.6 5.6 0 0 0-1.308 1.958 4.5 4.5 0 0 0-.206.741 3.15 3.15 0 0 0-.054.36c-.116.968.017 1.938-.066 3.008a2.81 2.81 0 0 1-.167.739c-.363.892-1.248 1.447-2.331 2.406-1.084.902-2.044 1.945-2.854 3.1a5.97 5.97 0 0 0-.969 3.459 10.37 10.37 0 0 0 .428 2.804c.087.302.185.593.3.859.85 2.318 2.359 3.921 3.504 3.249z" fill="#000"/></g><use xlink:href="#P" class="C E"/><use xlink:href="#Q" class="D"/><mask id="C" maskUnits="userSpaceOnUse" x="89" y="115" width="83" height="46"><path d="M89.005 143.792s3.377 10.478 10.006 12.62 12.456-2.396 15.71-.845a36.18 36.18 0 0 1 6.66 4.441s34.269-23.579 41.504-27.087 12.443-8.567 5.637-12.981-23.492-6.34-33.616-2.13-44.092 23.103-44.092 23.103l-1.81 2.879z" class="B"/></mask><g mask="url(#C)" class="C E"><use xlink:href="#Q" fill="#000" class="H"/></g><use xlink:href="#Q" class="C E"/><use xlink:href="#R" class="B"/><mask id="D" maskUnits="userSpaceOnUse" x="127" y="81" width="185" height="116"><path d="M203.006 100.266s3.45-3.92 7.944-4.661c2.965-.404 5.984-.156 8.844.727l11.965-2.759s6.065-8.7 16.919-9.412 56.314-1.694 56.78-1.816 5.936-.82 5.807-.439c-.216.655-.565 1.259-1.025 1.773-.726.89-12.18 3.793-12.18 3.793s5.512-1.244 5.155.234-.601 1.773-2.598 2.232l-6.444 1.488c-.76.166-3.946 1.631-5.943 1.242s-6.933-1.647-7.443-1.396-17.037 8.084-22.256 10.139-12.897 2.981-12.897 2.981-12.106 6.5-20.532 9.164-13.399 2.387-13.399 2.387l-.68.33-1.3 5.081c-.173.51-.749 14.314-4.759 20.733s-8.181 8.263-8.181 8.263-3.301 8.077-6.364 10.431-9.897 4.143-14.822 5.73-7.621 7.884-8.137 8.558-8.045 12.55-10.796 15.147-8.474 2.648-9.409 2.612c-.508-.021-7.669 5.549-12.101 3.652-2.874-1.207-5.214-3.412-6.589-6.209s-1.692-5.997-.893-9.009a21.19 21.19 0 0 1 1.41-3.711c3.64-7.402 7.794-9.576 7.794-9.576s15.117-23.197 16.76-30.139 2.94-11.169 6.132-14.328 11.389-6.887 22.458-7.806 13.148-3.321 14.782-8.137c1.136-3.03 3.246-5.597 5.998-7.299z" class="B"/></mask><g mask="url(#D)"><use xlink:href="#S" class="D"/><use xlink:href="#T" class="D"/><use xlink:href="#T" class="B H"/><use xlink:href="#S" class="B H"/></g><use xlink:href="#R" class="C E"/><path d="M197.653 147.3c3.278-5.25 3.21-11.206-.151-13.305s-8.742.457-12.019 5.707-3.21 11.206.151 13.304 8.742-.456 12.019-5.706z" class="D"/><g class="E"><g class="F"><path d="M166.437 163.412c-7.371-.804-8.908-5.006-8.908-5.006s-.96 5.333 6.017 8.548" class="G"/><path d="M192.917 138.296s.707 10.846-4.92 17.005-11.134 7.367-20.239 5.869m6.498 5.03s-6.796 2.929-11.375 3.073-8.651 1.74-10.524-3.993" class="C"/><path d="M243.079 97.587s3.903-1.078 4.987 1.555-2.475 5.221-2.475 5.221m-27.77-4.874a100.41 100.41 0 0 0-4.987 9.769c-.955 2.236-1.569 4.602-1.82 7.019" class="G"/><path d="M172.296 135.484l8.971-1.457" class="C"/></g><g class="G"><path d="M305.396 82.37c-.416.109-36.525.906-52.05 1.587 1.218.474 7.515 3.216 7.328 9.417-.057 2.652-.558 5.276-1.482 7.762 5.841-2.389 21.088-9.619 21.579-9.861s5.455 1.002 7.443 1.396 5.176-1.078 5.943-1.242 4.45-1.036 6.444-1.488 2.255-.796 2.598-2.232-5.155-.234-5.155-.234 11.463-2.93 12.18-3.793c.46-.514.809-1.118 1.025-1.773.084-.358-5.385.332-5.853.462z" class="D"/><path d="M297.998 87.496l-5.217.776" class="F"/></g><path d="M169.696 171.335l-5.642.442a46.36 46.36 0 0 1-16.551-.963c-4.248-1.054-7.134-4.093-8.614-6.05l-2.05 3.206s-4.154 2.174-7.793 9.576a21.22 21.22 0 0 0-1.41 3.711 12.91 12.91 0 0 0 .892 9.009c1.375 2.797 3.716 5.003 6.589 6.209 4.432 1.898 11.585-3.646 12.102-3.652.969.048 6.69-.003 9.408-2.612s10.287-14.471 10.797-15.147c.247-.325 1.024-1.948 2.272-3.729z" class="C I"/></g><path d="M138.851 172.827s6.23-.501 11.058 3.311" stroke="#fff" stroke-width=".75" class="F G"/><path d="M152.582 170.045c-7.272-1.588-10.459-5.525-11.831-8.248l-2.832 4.486a19.83 19.83 0 0 0 11.11 6.799c7.87 1.632 15.774.865 19.331.36a7.35 7.35 0 0 1 .268-.454c.27-.462.588-.952.945-1.468.011-.034.023-.068.07-.097l.355-.486c.012-.026.021-.053.027-.081a17.52 17.52 0 0 1 1.365-1.59 38.07 38.07 0 0 1-18.808.779zm-6.16-51.791s-1.441.208 3.984-1.202 2.655 2.355 8.211-4.108 10.776-10.913 16.921-11.093 21.268 8.206 21.268 8.206l2.901 3.953-8.783 8.475c-1.063-1.061-2.34-1.882-3.746-2.409a10.54 10.54 0 0 0-4.407-.644c-4.96.439-8.023 1.945-8.223 4.142s1.982 9.164 1.982 9.164-16.652-14.064-20.254-13.452-14.017.836-14.614.921 4.76-1.953 4.76-1.953z" class="C D E"/><path d="M160.267 116.321l3.203-2.587c5.193-4.458 12.608-4.632 12.608-4.632m-1.585 6.257a14.68 14.68 0 0 0-5.717.636 14.67 14.67 0 0 0-5.033 2.785" class="F C E"/><use xlink:href="#U" class="B"/><mask id="E" maskUnits="userSpaceOnUse" x="108" y="130" width="65" height="82"><path d="M164.815 132.303s-7.351-3.766-14.878-.805-8.668 8.492-8.668 8.492-6.573.596-8.698 3.11a23.96 23.96 0 0 0-3.165 4.865s-4.035 1.889-7.564 3.942-5.847 1.804-7.658 5.47-4.727 13.108-5.075 23.315.175 14.915.365 16.79 3.959 12.516 5.013 13.161 2.112 1.277 3.173 1.077 8.164.496 8.569-1.48a5.29 5.29 0 0 0-.072-3.138l-.122-.466s1.874-1.773 1.456-3.043-1.012-1.616-1.974-3.359-1.594-2.381-3.244-2.941-3.441-1.023-3.441-1.023-2.195-1.881.3-9.239 6.931-12.929 9.158-15.832c1.309-1.648 2.361-3.486 3.121-5.449 0 0 .459 1.572 7.666.76s11.402-8.579 11.402-8.579l-9.651-1.653c4.616 1.128 9.345 1.736 14.096 1.812 7.881.128 11.054.78 17.471-9.073" class="B"/></mask><g mask="url(#E)"><use xlink:href="#V" class="D"/><use xlink:href="#V" class="B H"/></g><g class="E F"><use xlink:href="#U" class="C"/><path d="M131.376 165.807l1.248-6.069" class="G"/></g><use xlink:href="#W" class="B"/><mask id="F" maskUnits="userSpaceOnUse" x="174" y="106" width="29" height="27"><path d="M182.559 132.943c4.069.107 6.508-4.156 10.298-8.25a102.93 102.93 0 0 1 9.275-8.451 33.46 33.46 0 0 1-10.307-5.481c-5.022-3.976-12.225-4.851-13.961-3.887s-1.012-.768-2.224 3.632-1.67 11.175-.908 13.843l1.26 4.215" class="B"/></mask><g mask="url(#F)"><use xlink:href="#X" class="D"/><use xlink:href="#X" class="B H"/></g><g class="E"><g class="C"><use xlink:href="#W" class="F"/><path d="M184.215 125.156a27.31 27.31 0 0 0 6.957 1.443l1.685-1.906a102.93 102.93 0 0 1 9.275-8.451 33.46 33.46 0 0 1-10.307-5.481c-5.022-3.976-12.225-4.851-13.961-3.887s-1.012-.768-2.224 3.632c-.655 2.543-1.058 5.144-1.203 7.766 1.471 2.408 4.348 4.982 9.778 6.884z"/></g><path d="M183.554 131.038l1.507-14.496" class="F G"/><path d="M202.092 88.018c.875-1.376 1.659-2.808 2.348-4.287 1.076-2.324-3.269-8.563-9.407-10.077s-5.957 5.055-7.363 6.699-6.431-2.325-9.114.583-.366 4.83-.702 5.822-5.943 2.09-7.348 8.265 6.91 15.494 9.02 16.778 5.635.071 6.227-1.675 4.623-1.122 6.206-2.441.845-7.917 1.398-9.146 6.226-4.956 5.373-6.662 3.362-3.859 3.362-3.859z" class="C I"/></g><path d="M195.535 87.384s2.043.451 3.525-3.917-5.221-5.422-6.69-3.974-1.92 4.947-4.398 5.084-5.974-1.057-6.567.689l-.815 2.405m8.074 1.277s-7.931-3.175-14.598 2.836m15.039-.497s-5.509-1.626-9.627 1.113" stroke="#fff" stroke-width=".75" class="F G"/><use xlink:href="#Y" class="B"/><mask id="G" maskUnits="userSpaceOnUse" x="177" y="87" width="30" height="30"><path d="M200.475 88.363c.519-.347 3.559 6.124 3.556 6.736a19.6 19.6 0 0 1-.25 2.188 1.02 1.02 0 0 0 .016.408 1.03 1.03 0 0 0 .175.369l2.519 3.362c.161.22.23.494.191.765a1.04 1.04 0 0 1-.401.679l-1.699 1.257a1.01 1.01 0 0 0-.411.943c.249 2.282 1.123 10.381.721 10.851-.481.58-1.166.955-1.915 1.047-.717.037-13.723.011-15.167-.334-1.105-.269-2.191-5.554-2.637-7.993-.057-.271-.221-.509-.453-.66s-.516-.205-.788-.147c-.585.116-1.19.085-1.76-.091s-1.087-.491-1.504-.918c-2.151-2.01-4.315-5.145-2.254-7.135s4.162-1.414 4.837-.48c.449.622 1.195 1.859 1.647 2.603.108.185.27.33.464.418s.411.113.62.071l.643-.13a1.01 1.01 0 0 0 .421-.176c.125-.089.229-.206.303-.341s.117-.285.125-.438a1.02 1.02 0 0 0-.077-.45c-.116-.327-.178-.67-.185-1.017 0 0 4.751-1.926 4.089-4.128s-3.187-6.035-2.334-7.299 6.511-1.329 8.685-.592c.817.247 2.438.895 2.823.632z" class="B"/></mask><g mask="url(#G)"><use xlink:href="#Z" class="D"/><use xlink:href="#Z" class="B H"/></g><use xlink:href="#Y" class="C E"/><path d="M201.731 96.364s-2.718-.922-3.617-.795-2.797 2.506-2.797 2.506l3.046-.694 3.097.406 1.496-1.864-1.225.441z" class="I"/><path d="M201.001 99.14l-2.717.374 2.323.788" class="B"/><path d="M201.001 99.14l-2.717.374 2.323.788" class="C E F"/><use xlink:href="#a" class="B"/><mask id="H" maskUnits="userSpaceOnUse" x="91" y="221" width="86" height="23"><path d="M156.375 222.67a60.91 60.91 0 0 0-14.453 1.316c-7.198 1.657-19.092 4.138-23.621 2.905s-5.448-3.121-7.768-5.036-4.851.9-5.496 2.802-.947 2.792-2.821 4.141-7.382 6.799-7.382 6.799-4.19 6.503-2.496 7.358 3.645-1.165 8.359-2.96 12.784-6.421 18.158-5.159 29.416 6.72 40.58 5.431 10.128-.246 13.644-1.432 3.882-5.615 3.436-8.879a12.35 12.35 0 0 0-1.79-5.153" class="B"/></mask><g mask="url(#H)"><use xlink:href="#b" class="D"/><use xlink:href="#b" class="B H"/></g><use xlink:href="#a" class="C E F"/><use xlink:href="#c" class="B"/><mask id="I" maskUnits="userSpaceOnUse" x="128" y="176" width="49" height="60"><path d="M176.601 231.515s.984-12.84-13.439-36.784c-9.689-16.104-14.935-20.626-24.996-16.402s-10.048 9.189-8.696 14.473 9.945 17.38 17.912 24.757 15.508 16.433 21.007 17.73" class="B"/></mask><g mask="url(#I)"><use xlink:href="#d" class="D"/><use xlink:href="#d" class="B H"/></g><use xlink:href="#c" class="C E F"/><use xlink:href="#e" class="D"/><mask id="J" maskUnits="userSpaceOnUse" x="91" y="221" width="56" height="23"><path d="M141.706 232.125c-.323-3.268 1.07-6.349 2.523-8.598l-2.308.46c-7.197 1.656-19.091 4.137-23.62 2.904s-5.448-3.121-7.768-5.036-4.851.9-5.496 2.802-.947 2.792-2.821 4.141-7.382 6.799-7.382 6.799-4.19 6.503-2.496 7.358 3.645-1.165 8.359-2.96 12.784-6.421 18.158-5.159c8.986 2.127 18.075 3.791 27.231 4.987a11.62 11.62 0 0 1-4.381-7.698z" class="B"/></mask><g mask="url(#J)"><path opacity=".2" d="M141.706 232.125c-.323-3.268 1.07-6.349 2.523-8.598l-2.308.46c-7.197 1.656-19.091 4.137-23.62 2.904s-5.448-3.121-7.768-5.036-4.851.9-5.496 2.802-.947 2.792-2.821 4.141-7.382 6.799-7.382 6.799-4.19 6.503-2.496 7.358 3.645-1.165 8.359-2.96 12.784-6.421 18.158-5.159c8.986 2.127 18.075 3.791 27.231 4.987a11.62 11.62 0 0 1-4.381-7.698z" fill="#000"/></g><g class="E"><g class="G"><use xlink:href="#e"/><path d="M130.979 191.368s21.729 27.172 28.863 32.894 7.171-.461 7.171-.461m-23.04 10.752s7.521 3.377 14.332.316" class="F"/></g><g class="C"><path d="M175.999 134.528s-7.655-9.77-19.502-12.274-29.317 4.556-41.459 11.543-69.529 48.094-69.529 48.094l1.802-9.289c.853-4.375 3.396-8.238 7.078-10.75l8.984-6.142s4.056-9.926 11.318-13.266a83.35 83.35 0 0 1 14.941-5.121c1.752-.497 20.786-9.912 34.257-16.69s28.106-9.943 38.08-3.121 13.591 10.67 15.39 13.811 1.965 2.939 1.965 2.939l-3.325.266z" class="D"/><path d="M101.027 136.021l3.163-1.798M63.373 155.71l36.41-19.126m49.141-18.58l-2.499.243m30.905 16.422s-10.094-15.87-26.015-16.657" class="F"/></g></g><use xlink:href="#f" class="D"/><mask id="K" maskUnits="userSpaceOnUse" x="108" y="168" width="20" height="44"><path d="M125.996 206.707s1.874-1.774 1.456-3.044-1.012-1.616-1.974-3.359-1.593-2.381-3.244-2.941l-3.441-1.023s-2.195-1.881.3-9.239a48.09 48.09 0 0 1 6.75-12.619 18.18 18.18 0 0 1-8.082-.135 9.7 9.7 0 0 1-7.03-6.21c-.943 4.136-1.505 8.35-1.679 12.589-.349 10.207.176 14.915.365 16.79s3.959 12.516 5.013 13.161 2.112 1.277 3.173 1.076 8.164.497 8.569-1.479a5.29 5.29 0 0 0-.072-3.138l-.104-.429z" class="B"/></mask><g mask="url(#K)"><path opacity=".2" d="M126.19 210.31c.069-.204.07-.408.094-.589l.055-.163c.019-.055.029-.263.039-.381l.015-.29c-2.536-.52-7.514-.473-8.709-.879-1.305-.442-1.95-2.85-3.171-5.704s-2.357-9.556-.403-16.681c1.155-4.275 3.511-7.96 5.455-10.944-.581-.076-1.165-.184-1.784-.325-1.601-.356-3.086-1.113-4.315-2.199s-2.163-2.466-2.714-4.011c-.06.177-.082.374-.121.557l-.207.991c-.072.21-.087.455-.143.709s-.109.614-.17.927-.08.481-.122.716a40.77 40.77 0 0 0-.148.95l-.108.721-.15.979-.088.728-.112 1.045-.07.696-.092 1.188a13.64 13.64 0 0 0-.048.59l-.089 1.803c-.349 10.207.175 14.915.365 16.79a3.66 3.66 0 0 0 .082.452c.057.277.139.615.248 1.008a40.41 40.41 0 0 0 .73 2.316l.179.523c1.248 3.734 3.104 8.446 3.81 8.867 1.056.639 2.112 1.277 3.173 1.076.382-.043.767-.059 1.152-.048l.581.008c2.414.03 6.493.065 6.786-1.426z" fill="#000"/><path d="M126.036 204.198l-2.046.783s1.21.319 2.128 2.191" class="E F G"/></g><g class="E G"><use xlink:href="#f"/><path d="M269.999 107.869l-28.842 13.117m-2.704 1.227l-4.675 2.126M67.375 184.225l-5.035 2.292m42.275-19.22l-33.192 15.089m31.944 66.468l-3.331 1.514m24.13-10.973l-17.429 7.921m-82.543-64.829l-4.023 1.833m42.282-19.218l-32.869 14.941m100.952-70.117l-5.042 2.29m42.282-19.217l-32.872 14.947m126.159 8.444l-42.281 19.218" class="F"/></g><path d="M281.658 164.933c-4.885-2.662-7.102-.445-8.874-2.662s4.878-7.992-8.436-13.731c0 0-.89-12.432-19.09-12.913s-13.315 12.433-18.2 15.539-6.213-1.779-11.098 1.334-2.662 9.326-6.658 10.209-9.326-3.996-14.204-.89-4.886 5.739-7.102 5.739-6.658-1.772-9.326 0-5.775 3.996-5.775 3.996h112.314s1.32-3.96-3.551-6.621zm-162.711-71.84c-1.887-1.026-2.741-.172-3.429-1.026s1.886-3.085-3.25-5.309c0 0-.344-4.799-7.368-4.972s-5.136 4.799-7.023 5.997-2.396-.717-4.304.509-1.026 3.587-2.568 3.946-3.587-1.542-5.481-.344-1.887 2.224-2.74 2.224-2.568-.681-3.587 0l-2.224 1.542h43.338s.502-1.542-1.363-2.568z" class="B"/><defs ><path id="M" d="M289.019 125.103c-12.339-37.046-44.615-68.209-83.505-77.428-43.947-10.424-91.173 6.557-127.15 31.565-13.128 9.125-25.374 19.958-34.872 32.886-32.44 44.205 22.081 67.678 20.711 89.767s-36.587 26.916-9.67 57.29 111.827 23.466 178.093-11.736c21.88-11.622 42.885-27.785 53.359-50.877 10.668-23.552 10.639-48.625 3.035-71.467z"/><path id="N" d="M96.593 222.058c-8.526 2.199-20.524 11.712-26.136 15.323s-8.015 10.721-10.311 12.063-6.023-6.429-3.317-10.322 5.16-4.045 5.373-6.237-.531-3.862 1.643-6.094 4.987 1.555 9.531.263 11.92-10.956 20.357-20.821 18.001-6.348 19.744-7.734 16.045-22.291 22.259-18.903 14.187 19.099 8.228 24.183-10.358 3.426-16.945 5.29-6.201 2.851-11.045 5.45-7.621 2.369-9.674 2.234c0 0-3.654 2.018-6.035 3.612s-3.673 1.693-3.673 1.693z"/><path id="O" d="M81.541 224.649c3.591-3.372 13.536-11.029 22.426-14.748s33.692-5.42 33.692-5.42l4.512.591c.619-.409 1.213-.855 1.778-1.336 5.955-5.048-2.009-20.764-8.219-24.143s-20.514 17.511-22.259 18.903-11.298-2.135-19.744 7.735-15.822 19.533-20.357 20.821-7.358-2.496-9.531-.263-1.463 3.889-1.643 6.093-2.642 2.362-5.373 6.238 1 11.657 3.317 10.322a9.19 9.19 0 0 0 2.335-2.754c-.089-3.174.641-6.318 2.119-9.129 3.163-6.555 13.347-9.533 16.946-12.91z"/><path id="P" d="M95.398 222.41a14.41 14.41 0 0 1-4.131-2.583c-2.389-2.113-2.458-5.507-1.957-8.322-6.559 7.812-12.191 14.5-15.885 15.565-4.544 1.292-7.358-2.495-9.531-.263s-1.463 3.89-1.643 6.094-2.642 2.361-5.373 6.238 1 11.656 3.317 10.321 4.706-8.449 10.311-12.062c5.345-3.452 16.474-12.276 24.893-14.988z"/><path id="Q" d="M89.005 143.792s3.377 10.478 10.006 12.62 12.456-2.396 15.71-.845a36.18 36.18 0 0 1 6.66 4.441s34.269-23.579 41.504-27.087 12.443-8.567 5.637-12.981-23.492-6.34-33.616-2.13-44.092 23.103-44.092 23.103l-1.81 2.879z"/><path id="R" d="M203.006 100.266s3.45-3.92 7.944-4.661c2.965-.404 5.984-.156 8.844.727l11.965-2.759s6.065-8.7 16.919-9.412 56.314-1.694 56.78-1.816 5.936-.82 5.807-.439c-.216.655-.565 1.259-1.025 1.773-.726.89-12.18 3.793-12.18 3.793s5.512-1.244 5.155.234-.601 1.773-2.598 2.232l-6.444 1.488c-.76.166-3.946 1.631-5.943 1.242s-6.933-1.647-7.443-1.396-17.037 8.084-22.256 10.139-12.897 2.981-12.897 2.981-12.106 6.5-20.532 9.164-13.399 2.387-13.399 2.387l-.68.33-1.3 5.081c-.173.51-.749 14.314-4.759 20.733s-8.181 8.263-8.181 8.263-3.301 8.077-6.364 10.431-9.897 4.143-14.822 5.73-7.621 7.884-8.137 8.558-8.045 12.55-10.796 15.147-8.474 2.648-9.409 2.612c-.508-.021-7.669 5.549-12.101 3.652-2.874-1.207-5.214-3.412-6.589-6.209s-1.692-5.997-.893-9.009a21.19 21.19 0 0 1 1.41-3.711c3.64-7.402 7.794-9.576 7.794-9.576s15.117-23.197 16.76-30.139 2.94-11.169 6.132-14.328 11.389-6.887 22.458-7.806 13.148-3.321 14.782-8.137c1.136-3.03 3.246-5.597 5.998-7.299z"/><path id="S" d="M208.673 129.99l-.063-.059s-3.346 8.054-6.582 13.084-10.215 6.641-10.215 6.641l-5.818 7.216s-9.009 3.982-13.405 2.491-3.756-5.251-3.756-5.251c-2.944-4.923-11.096-10.392-17.383-10.995-3.351 6.886-9.577 16.91-12.718 21.86 2.008 2.143 5.522 4.713 11.484 6.099 6.179 1.371 12.535 1.766 18.837 1.17 1.361-2.114 3.519-4.791 6.493-5.744l1.655-.522c-4.544.307-11.43 3.993-15.315 3.229-4.31-.848-5.404-2.136-4.565-3.692s6.197 1.427 8.423 1.342.65-1-3.288-2.949-2.548-3.319-2.548-3.319 6.503 2.827 7.962 2.701 11.113.739 16.41-1.479 8.243-9.741 8.243-9.741l3.703-.509.51-1.191s4.161-1.838 8.181-8.262c1.943-3.114 3.077-7.911 3.755-12.12z"/><path id="T" d="M257.021 97.687c-9.101.746-10.317-.848-10.317-.848a16.22 16.22 0 0 1 1.369 2.305c.77 1.504-1.939 4.577-7.25 6.321s-21.941 5.549-24.319 4.743.311-8.735.311-8.735a49.3 49.3 0 0 0-5.667 14.744l.516-.249s4.996.278 13.4-2.387 20.531-9.164 20.531-9.164 7.673-.935 12.897-2.981c2.867-1.126 9.136-3.999 14.292-6.402-5.187 1.245-10.454 2.131-15.763 2.653z"/><path id="U" d="M164.815 132.303s-7.351-3.766-14.878-.805-8.668 8.492-8.668 8.492-6.573.596-8.698 3.11a23.96 23.96 0 0 0-3.165 4.865s-4.035 1.889-7.564 3.942-5.847 1.804-7.658 5.47-4.727 13.108-5.075 23.315.175 14.915.365 16.79 3.959 12.516 5.013 13.161 2.112 1.277 3.173 1.077 8.164.496 8.569-1.48a5.29 5.29 0 0 0-.072-3.138l-.122-.466s1.874-1.773 1.456-3.043-1.012-1.616-1.974-3.359-1.594-2.381-3.244-2.941-3.441-1.023-3.441-1.023-2.195-1.881.3-9.239 6.931-12.929 9.158-15.832c1.309-1.648 2.361-3.486 3.121-5.449 0 0 .459 1.572 7.666.76s11.402-8.579 11.402-8.579l-9.651-1.653c4.616 1.128 9.345 1.736 14.096 1.812 7.881.128 11.054.78 17.471-9.073"/><path id="V" d="M144.772 151.73c-.713-2.188 8.418-4.72 11.039-5.99s-7.443 1.127-9.554.896-3.412-2.135-.247-7.872c2.091-3.569 5.154-6.472 8.831-8.367-1.684.112-3.342.479-4.915 1.09-7.514 2.966-8.684 8.516-8.684 8.516s-6.573.596-8.698 3.11c-1.249 1.488-2.312 3.121-3.166 4.865 0 0-4.034 1.889-7.563 3.942s-5.847 1.805-7.659 5.47-4.726 13.109-5.075 23.316.176 14.914.366 16.789 3.959 12.517 5.012 13.162 2.113 1.277 3.173 1.076 8.165.497 8.57-1.479c.099-.479.16-.965.182-1.454-2.536-.519-7.513-.473-8.709-.878-1.305-.443-1.95-2.851-3.171-5.704s-2.357-9.557-.403-16.681 7.206-12.646 8.317-15.921-5.408 3.037-3.428.057 7.108-6.596 10.168-7.02 6.42-.254 8.273-2.057-3.696-2.012-1.365-3.145 14.444.475 18.882-.413-9.457-3.117-10.176-5.308z"/><path id="W" d="M182.559 132.942c4.069.108 6.508-4.155 10.298-8.249a102.93 102.93 0 0 1 9.275-8.451 33.46 33.46 0 0 1-10.307-5.481c-5.022-3.976-12.225-4.851-13.961-3.887s-1.012-.768-2.224 3.632-1.67 11.175-.908 13.843l1.26 4.215"/><path id="X" d="M200.506 115.675c-3.131-1.204-6.068-2.864-8.715-4.926-5.022-3.976-12.225-4.851-13.961-3.887s-1.012-.767-2.224 3.632-1.67 11.176-.908 13.843l.286.945 25.782-9.345-.26-.262z"/><path id="Y" d="M200.475 88.363c.519-.347 3.559 6.124 3.556 6.736a19.6 19.6 0 0 1-.25 2.188 1.02 1.02 0 0 0 .016.408 1.03 1.03 0 0 0 .175.369l2.519 3.362c.161.22.23.494.191.765a1.04 1.04 0 0 1-.401.679l-1.699 1.257a1.01 1.01 0 0 0-.411.943c.249 2.282 1.123 10.381.721 10.851-.481.58-1.166.955-1.915 1.047-.717.037-13.723.011-15.167-.334-1.105-.269-2.191-5.554-2.637-7.993-.057-.271-.221-.509-.453-.66s-.516-.205-.788-.147c-.585.116-1.19.085-1.76-.091s-1.087-.491-1.504-.918c-2.151-2.01-4.315-5.145-2.254-7.135s4.162-1.414 4.837-.48c.449.622 1.195 1.859 1.647 2.603.108.185.27.33.464.418s.411.113.62.071l.643-.13a1.01 1.01 0 0 0 .421-.176c.125-.089.229-.206.303-.341s.117-.285.125-.438a1.02 1.02 0 0 0-.077-.45c-.116-.327-.178-.67-.185-1.017 0 0 4.751-1.926 4.089-4.128s-3.187-6.035-2.334-7.299 6.511-1.329 8.685-.592c.817.247 2.438.895 2.823.632z"/><path id="Z" d="M191.274 95.59c.662 2.202-4.089 4.128-4.089 4.128.007.347.069.69.185 1.017.059.142.085.296.077.45a1.02 1.02 0 0 1-.125.438c-.074.135-.178.252-.303.341a1.01 1.01 0 0 1-.421.176l-.643.131c-.209.041-.425.016-.62-.072s-.356-.233-.464-.417l-1.647-2.604c-.675-.934-2.748-1.5-4.837.481s.103 5.125 2.254 7.135c.417.427.934.742 1.504.918s1.175.207 1.76.091c.272-.057.555-.005.788.147s.396.389.453.66c.45 2.426 1.532 7.724 2.637 7.993 1.444.346 14.454.357 15.167.334a2.96 2.96 0 0 0 1.915-1.047s-5.849.674-7.755-2.729-4.27-8.183-4.811-10.207 2.987-4.896 1.882-9.165-5.271-5.522-5.271-5.522c-.821 1.282 1.7 5.106 2.364 7.324z"/><path id="a" d="M156.375 222.67a60.91 60.91 0 0 0-14.453 1.316c-7.198 1.657-19.092 4.138-23.621 2.905s-5.448-3.121-7.768-5.036-4.851.9-5.496 2.802-.947 2.792-2.821 4.141-7.382 6.799-7.382 6.799-4.19 6.503-2.496 7.358 3.645-1.165 8.359-2.96 12.784-6.421 18.158-5.159 29.416 6.72 40.58 5.431 10.128-.246 13.644-1.432 3.882-5.615 3.436-8.879a12.35 12.35 0 0 0-1.79-5.153"/><path id="b" d="M166.041 239.644c-1.072-.591-1.868-1.194-1.725-1.615.373-1.101 3.668.017 6.064-1.617s1.212-4.491-.144-7.708l-1.777-4.633-12.057-1.392a60.86 60.86 0 0 0-14.453 1.317c-7.225 1.647-19.119 4.128-23.648 2.895s-5.448-3.121-7.768-5.036-4.851.9-5.496 2.802-.947 2.792-2.821 4.141-7.382 6.799-7.382 6.799-4.19 6.503-2.495 7.358 3.645-1.165 8.359-2.96 12.784-6.421 18.158-5.159 29.416 6.72 40.58 5.431c2.965-.343 5.048-.522 6.605-.623z"/><path id="c" d="M176.601 231.515s.984-12.84-13.439-36.784c-9.689-16.104-14.935-20.626-24.996-16.402s-10.048 9.189-8.696 14.473 9.945 17.38 17.912 24.757 15.508 16.433 21.007 17.73"/><path id="d" d="M164.399 217.839c-2.659-1.205.423 5.968-4.877 2.633s-19.576-27.154-21.836-34.049c-1.862-5.677 2.358-8.449 3.905-9.281a21.39 21.39 0 0 0-3.408 1.117c-10.064 4.23-10.046 9.182-8.697 14.473s9.945 17.38 17.912 24.756 15.508 16.434 21.007 17.731l3.341-1.518c-.018-1.445-.737-3.166-1.512-5.013-1.367-3.206-3.184-9.64-5.835-10.849z"/><path id="e" d="M141.706 232.125c-.323-3.268 1.07-6.349 2.523-8.598l-2.308.46c-7.197 1.656-19.091 4.137-23.62 2.904s-5.448-3.121-7.768-5.036-4.851.9-5.496 2.802-.947 2.792-2.821 4.141-7.382 6.799-7.382 6.799-4.19 6.503-2.495 7.358 3.645-1.165 8.359-2.96 12.784-6.421 18.158-5.159c8.986 2.127 18.075 3.791 27.231 4.987a11.62 11.62 0 0 1-4.381-7.698z"/><path id="f" d="M125.996 206.707s1.874-1.774 1.456-3.044-1.012-1.616-1.974-3.359-1.593-2.381-3.244-2.941l-3.441-1.023s-2.195-1.881.3-9.239a48.09 48.09 0 0 1 6.75-12.619 18.18 18.18 0 0 1-8.082-.135 9.7 9.7 0 0 1-7.03-6.21c-.943 4.136-1.505 8.35-1.679 12.589-.349 10.207.176 14.915.365 16.79s3.959 12.516 5.013 13.161 2.112 1.277 3.173 1.076 8.164.497 8.569-1.479a5.29 5.29 0 0 0-.072-3.138l-.104-.429z"/></defs></svg>