<svg xmlns="http://www.w3.org/2000/svg" xmlns:xlink="http://www.w3.org/1999/xlink" width="500" height="500" fill="none" xmlns:v="https://vecta.io/nano"><style><![CDATA[.B{fill:#27bfab}.C{fill:#263238}.D{fill:#b8b8b8}.E{fill:#fff}.F{stroke:#263238}.G{stroke-miterlimit:10}]]></style><use xlink:href="#B" class="B"/><use xlink:href="#B" opacity=".7" class="E"/><path d="M387.1 123.55l-3.69 7.38 6.91-.46-3.22-6.92z" class="D"/><path d="M425.82 92.67l-5.53 3.22 4.61 4.61 4.15-4.15-3.23-3.68z" class="C"/><path d="M423.98 138.31l-4.15 5.53 7.38 1.84 2.3-5.53-5.53-1.84zm-20.75-37.81l-5.53 1.85 3.23 6.45 5.07-1.38-2.77-6.92z" class="B"/><use xlink:href="#C" class="D"/><use xlink:href="#D" class="C"/><path d="M363.13 122.63h-5.08l3.69 6.46 1.39-6.46z" class="B"/><path d="M431.21 376.61l-3.69 7.37 6.92-.46-3.23-6.91z" class="D"/><path d="M468.09 391.36l-4.15 5.53 7.38 1.84 2.3-5.53-5.53-1.84z" class="B"/><path d="M383.26 389.97l-.92 3.23 6 1.85.46-6.46-5.54 1.38z" class="D"/><use xlink:href="#D" x="44.11" y="253.05" class="C"/><path d="M407.24 375.68h-5.07l3.68 6.46 1.39-6.46z" class="B"/><path d="M192.57 258.25l-3.69 7.38 6.92-.46-3.23-6.92z" class="D"/><path d="M229.45 273l-4.15 5.54 7.38 1.84 2.3-5.53-5.53-1.85z" class="B"/><use xlink:href="#D" x="-194.53" y="134.7" class="C"/><path d="M168.6 257.33h-5.07l3.68 6.45 1.39-6.45z" class="B"/><path d="M229 135.16l-3.68 7.37 6.91-.46-3.23-6.91z" class="D"/><path d="M267.73 104.27l-5.53 3.22 4.61 4.61 4.15-4.15-3.23-3.68z" class="C"/><path d="M265.89 149.91l-4.15 5.53 7.37 1.84 2.31-5.53-5.53-1.84zm-20.75-37.81l-5.53 1.85 3.23 6.45 5.07-1.38-2.77-6.92z" class="B"/><path d="M439.52 194.27l-3.69 7.37 6.92-.46-3.23-6.91z" class="D"/><path d="M476.4 209.02l-4.15 5.53 7.38 1.85 2.3-5.54-5.53-1.84zm-20.75-37.8l-5.53 1.84 3.23 6.45 5.07-1.38-2.77-6.91z" class="B"/><path d="M181.06 148.52l-.92 3.23 5.99 1.85.46-6.46-5.53 1.38z" class="D"/><path d="M202.73 174.8l-4.15.92 2.3 4.62 4.15-.93-2.3-4.61z" class="C"/><path d="M205.03 134.23h-5.07l3.69 6.46 1.38-6.46z" class="B"/><path d="M323.6 389.15l-3.69 7.38 6.91-.46-3.22-6.92z" class="D"/><path d="M360.48 403.9l-4.15 5.54 7.38 1.84 2.3-5.53-5.53-1.85z" class="B"/><use xlink:href="#C" x="-63.5" y="265.6" class="D"/><path d="M299.62 388.23h-5.07l3.69 6.45 1.38-6.45z" class="B"/><path d="M165.5 400.75l-3.68 7.38 6.91-.46-3.23-6.92z" class="D"/><path d="M202.39 415.5l-4.15 5.54 7.37 1.84 2.31-5.53-5.53-1.85zm-20.75-37.8l-5.53 1.85 3.23 6.45 5.07-1.38-2.77-6.92zm-40.11 22.13h-5.07l3.69 6.45 1.38-6.45z" class="B"/><path d="M145.25 218.12l-3.69 7.38 6.92-.47-3.23-6.91z" class="D"/><path d="M182.13 232.87l-4.15 5.54 7.38 1.84 2.31-5.53-5.54-1.85z" class="B"/><path d="M97.31 231.49l-.93 3.23 6 1.84.46-6.45-5.53 1.38z" class="D"/><path d="M118.97 257.77l-4.14.92 2.3 4.61 4.15-.92-2.31-4.61z" class="C"/><path d="M119.74 457.71l-3.69 7.38 6.92-.46-3.23-6.92z" class="D"/><path d="M95.77 456.79h-5.08l3.69 6.45 1.39-6.45zm13.53-24.46l-4.15 5.54 7.38 1.84 2.3-5.53-5.53-1.85z" class="B"/><use xlink:href="#D" x="-314.68" y="294.03" class="C"/><path d="M121.28 217.2h-5.07l3.69 6.45 1.38-6.45z" class="B"/><path d="M295.77 236.79l-3.69 7.38 6.92-.46-3.23-6.92z" class="D"/><path d="M334.5 205.91l-5.54 3.22 4.61 4.61 4.15-4.15-3.22-3.68z" class="C"/><path d="M387.1 319.33l-3.69 7.37 6.91-.46-3.22-6.91z" class="D"/><path d="M423.98 334.08l-4.15 5.53 7.38 1.85 2.3-5.54-5.53-1.84z" class="B"/><path d="M339.15 332.7l-.92 3.22 5.99 1.85.46-6.46-5.53 1.39z" class="D"/><path d="M360.82 358.98l-4.15.92 2.31 4.61 4.15-.93-2.31-4.6z" class="C"/><path d="M363.13 318.41h-5.08l3.69 6.45 1.39-6.45z" class="B"/><path d="M450.72 273.13l-3.68 7.37 6.91-.46-3.23-6.91zm-47.94 13.37l-.92 3.22 5.99 1.85.46-6.46-5.53 1.39z" class="D"/><path d="M426.75 272.2h-5.07l3.69 6.46 1.38-6.46z" class="B"/><path d="M406.61 215.85l-3.69 7.37 6.92-.46-3.23-6.91z" class="D"/><path d="M443.49 230.6l-4.15 5.53 7.38 1.85 2.3-5.53-5.53-1.85z" class="B"/><use xlink:href="#D" x="19.51" y="92.3" class="C"/><path d="M449 450.33l-.92 3.23 5.99 1.84.47-6.45-5.54 1.38z" class="D"/><path d="M472.98 436.04h-5.07l3.68 6.45 1.39-6.45z" class="B"/><path d="M426.56 419.33l-4.15.92 2.3 4.61 4.15-.92-2.3-4.61z" class="C"/><path d="M382.64 214.93h-5.07l3.69 6.45 1.38-6.45z" class="B"/><path d="M103.06 404.58l-3.69 7.37 6.91-.46-3.22-6.91zm-2.7-80.61l-.92 3.23 6 1.84.46-6.45-5.54 1.38z" class="D"/><path d="M79.08 403.65h-5.07l3.69 6.46 1.38-6.46z" class="B"/><path d="M58.94 347.3l-3.68 7.38 6.91-.47-3.23-6.91z" class="D"/><path d="M95.83 362.05l-4.15 5.53 7.37 1.85 2.31-5.53-5.53-1.85z" class="B"/><path d="M32.67 386.95l-4.15.92 2.3 4.61 4.15-.92-2.3-4.61z" class="C"/><path d="M34.97 346.38H29.9l3.69 6.45 1.38-6.45z" class="B"/><path d="M334.5 401.68l-5.54 3.23 4.61 4.61 4.15-4.15-3.22-3.69z" class="C"/><path d="M332.65 251.55l-4.15 5.53 7.38 1.84 2.3-5.53-5.53-1.84zm-20.75-37.81l-5.53 1.85 3.23 6.45 5.07-1.38-2.77-6.92z" class="B"/><use xlink:href="#C" x="-91.33" y="113.24" class="D"/><use xlink:href="#D" x="-91.33" y="113.24" class="C"/><path d="M271.8 235.87h-5.07l3.68 6.45 1.39-6.45z" class="B"/><use xlink:href="#E" class="D"/><path d="M38.13 144.54l6.15-1.8-3.36-5.59-5.03 3.03 2.24 4.36z" class="C"/><path d="M50.93 100.69l5.36-4.37-6.72-3.57L46 97.56l4.93 3.13zm11.01 41.69l5.82-.46-1.58-7.04-5.25.12 1.01 7.38z" class="B"/><use xlink:href="#E" y="161.91" class="D"/><path d="M38.13 306.45l6.15-1.8-3.36-5.59-5.03 3.03 2.24 4.36z" class="C"/><path d="M50.93 262.6l5.36-4.37-6.72-3.57-3.57 4.82 4.93 3.12zm11.01 41.69l5.82-.46-1.58-7.04-5.25.12 1.01 7.38z" class="B"/><use xlink:href="#E" x="230.63" y="173.01" class="D"/><use xlink:href="#F" class="C"/><path d="M281.56 273.7l5.36-4.37-6.72-3.57-3.57 4.82 4.93 3.12zM38.83 202.24l-4.15 5.54 7.37 1.84 2.31-5.53-5.53-1.85z" class="B"/><path d="M105.14 166.03l-3.69 7.38 6.92-.46-3.23-6.92zM57.2 179.4l-.93 3.23 6 1.84.46-6.45-5.53 1.38z" class="D"/><path d="M78.86 205.68l-4.14.92 2.3 4.61 4.15-.92-2.31-4.61z" class="C"/><path d="M81.17 165.11H76.1l3.69 6.46 1.38-6.46zm9.76 37.83l5.36-4.37-6.71-3.57-3.57 4.82 4.92 3.12zm128.03 5.24l-4.15 5.54 7.38 1.84 2.3-5.53-5.53-1.85z" class="B"/><g class="D"><path d="M285.28 171.97l-3.69 7.38 6.91-.46-3.22-6.92z"/><use xlink:href="#C" x="-101.82" y="48.42"/></g><path d="M259 211.62l-4.15.92 2.3 4.61 4.15-.92-2.3-4.61z" class="C"/><path d="M261.3 171.05h-5.07l3.69 6.45 1.38-6.45zm9.76 37.83l5.37-4.37-6.72-3.57-3.57 4.82 4.92 3.12zM178.59 70.01l-4.15 5.53 7.38 1.85 2.31-5.54-5.54-1.84z" class="B"/><path d="M196.97 47.17l-.93 3.23 6 1.84.46-6.46-5.53 1.39z" class="D"/><use xlink:href="#D" x="-142.19" y="-89.75" class="C"/><path d="M220.94 32.88h-5.07l3.69 6.45 1.38-6.45zm9.76 37.82l5.36-4.36-6.71-3.57-3.57 4.81 4.92 3.12z" class="B"/><path d="M361.48 52.21l-3.69 7.37 6.91-.46-3.22-6.91z" class="D"/><path d="M448.75 37.71l-5.54 3.23 4.61 4.61 4.15-4.15-3.22-3.69z" class="C"/><path d="M398.36 66.96l-4.15 5.53 7.37 1.85 2.31-5.53-5.53-1.85zm27.79-21.41l-5.53 1.84 3.23 6.45 5.07-1.38-2.77-6.91z" class="B"/><path d="M313.53 65.58l-.92 3.23 5.99 1.84.46-6.46-5.53 1.39z" class="D"/><path d="M335.2 91.86l-4.15.92 2.31 4.61 4.14-.92-2.3-4.61z" class="C"/><path d="M337.5 51.29h-5.07l3.69 6.45 1.38-6.45zm9.76 37.82l5.37-4.36-6.72-3.57-3.57 4.81 4.92 3.12zm-54.69 226.28l5.82-.46-1.58-7.04-5.25.12 1.01 7.38z" class="B"/><path d="M132.92 122.49l1.67-2.91-5.37-3.24-2.01 6.16 5.71-.01z" class="D"/><path d="M118.22 91.76l4.25.1-1.12-5.03-4.25-.1 1.12 5.03z" class="C"/><path d="M106.2 130.58l4.93 1.22-2.03-7.16-2.9 5.94z" class="B"/><path d="M111.16 67.96l5.36-6.27-6.83-1.22 1.47 7.49z" class="D"/><path d="M66.13 88.6l6.14-1.8-3.36-5.58-5.03 3.02 2.25 4.36z" class="C"/><path d="M78.92 44.75l5.36-4.37-6.71-3.57L74 41.63l4.92 3.12zm11.02 41.69l5.81-.46-1.57-7.04-5.26.12 1.02 7.38z" class="B"/><path d="M160.91 66.55l1.68-2.91-5.38-3.24-2 6.16 5.7-.01z" class="D"/><path d="M146.22 35.82l4.25.11-1.13-5.03-4.25-.11 1.13 5.03z" class="C"/><path d="M134.2 74.64l4.92 1.22-2.02-7.15-2.9 5.93z" class="B"/><use xlink:href="#E" x="102.04" y="217.22" class="D"/><use xlink:href="#F" x="-128.59" y="44.21" class="C"/><path d="M152.97 317.91l5.36-4.37-6.72-3.57-3.57 4.82 4.93 3.12zm11.01 41.69l5.82-.46-1.58-7.04-5.25.12 1.01 7.38z" class="B"/><path d="M234.96 339.71l1.67-2.91-5.37-3.24-2.01 6.16 5.71-.01z" class="D"/><path d="M220.27 308.98l4.24.11-1.12-5.03-4.25-.11 1.13 5.03z" class="C"/><path d="M208.25 347.8l4.92 1.22-2.03-7.15-2.89 5.93z" class="B"/><use xlink:href="#D" x="-194.53" y="263.56" class="C"/><path d="M387.1 448.19l-3.69 7.38 6.91-.47-3.22-6.91z" class="D"/><path d="M423.98 462.94l-4.15 5.53 7.38 1.85 2.3-5.53-5.53-1.85z" class="B"/><use xlink:href="#C" y="324.64" class="D"/><path d="M363.13 447.27h-5.08l3.69 6.45 1.39-6.45z" class="B"/><path d="M450.6 349.16l-.92 3.22 5.99 1.85.46-6.46-5.53 1.39zM86.26 457.75l-3.69 7.37 6.92-.46-3.23-6.91z" class="D"/><path d="M62.29 456.82h-5.07l3.69 6.46 1.38-6.46z" class="B"/><use xlink:href="#F" x="-230.63" y="117.76" class="C"/><path d="M107.2 339.18l5.81-.46-1.57-7.04-5.26.12 1.02 7.38z" class="B"/><use xlink:href="#E" x="230.63" y="301.87" class="D"/><use xlink:href="#F" y="128.86" class="C"/><path d="M292.57 444.25l5.82-.45-1.58-7.05-5.25.12 1.01 7.38z" class="B"/><use xlink:href="#E" x="102.04" y="346.08" class="D"/><path d="M152.97 446.77l5.36-4.37-6.72-3.57-3.57 4.82 4.93 3.12z" class="B"/><path d="M234.96 468.57l1.67-2.91-5.37-3.23-2.01 6.15 5.71-.01z" class="D"/><path d="M220.27 437.84l4.24.11-1.12-5.03-4.25-.11 1.13 5.03z" class="C"/><g class="B"><path d="M208.25 476.66l4.92 1.22-2.03-7.15-2.89 5.93z"/><path d="M463.75 43c0 15.26-11.68 38.6-26.09 38.6S411.57 58.26 411.57 43s11.68-27.63 26.09-27.63S463.75 27.74 463.75 43z" class="F G"/></g><path d="M437.66 85.87s-4.73 5.45-4.73 17.89 15.16 16.31 12.44 36.9-17.49 22.15-19.82 36.14 6.61 18.26 6.61 18.26" class="F G"/><use xlink:href="#G" class="B F G"/><path d="M456 33.16c-1.47 2.61-5.85 3-9.78.74s-5.92-6.11-4.45-8.73 5.85-3 9.78-.75 5.9 6.12 4.45 8.74z" class="E"/><g class="F G"><path d="M467.87 258.27c0 15.26-11.68 38.59-26.09 38.59s-26.09-23.33-26.09-38.59 11.69-27.63 26.09-27.63 26.09 12.36 26.09 27.63z" class="B"/><path d="M441.78 301.14s-4.72 5.45-4.72 17.88 15.15 16.32 12.43 36.91-17.49 22.14-19.81 36.13 6.6 18.26 6.6 18.26"/><path d="M441.78 296.86s-5.11 7-3.94 8.56 5.82 1.95 6.21-.39-2.27-8.17-2.27-8.17z" class="B"/></g><path d="M460.1 248.42c-1.47 2.62-5.85 3-9.78.75s-5.92-6.12-4.45-8.74 5.85-3 9.78-.75 5.92 6.12 4.45 8.74z" class="E"/><g class="F G"><path d="M87.83 43c0 15.26-11.68 38.6-26.09 38.6S35.65 58.26 35.65 43s11.68-27.63 26.09-27.63S87.83 27.74 87.83 43z" class="C"/><path d="M61.74 85.87S57 91.32 57 103.76s15.15 16.31 12.43 36.9S52 162.81 49.63 176.8s6.61 18.26 6.61 18.26"/><use xlink:href="#G" x="-375.92" class="C"/></g><path d="M80.06 33.16c-1.47 2.61-5.85 3-9.78.74s-5.92-6.11-4.45-8.73 5.85-3 9.78-.75 5.92 6.12 4.45 8.74z" class="E"/><g class="F G"><path d="M83.17 261.86c0 15.26-11.69 38.6-26.09 38.6S31 277.12 31 261.86s11.68-27.63 26.09-27.63 26.08 12.37 26.08 27.63z" class="C"/><path d="M57.08 304.73s-4.73 5.45-4.73 17.89 15.15 16.31 12.43 36.9S47.3 381.67 45 395.66s6.6 18.26 6.6 18.26"/><path d="M57.08 300.46s-5.12 7-3.95 8.56 5.82 1.94 6.21-.39-2.26-8.17-2.26-8.17z" class="C"/></g><path d="M75.39 252.02c1.471-2.62-.523-6.532-4.452-8.738s-8.308-1.871-9.778.749.523 6.532 4.452 8.738 8.308 1.871 9.778-.749z" class="E"/><g class="F G"><path d="M126.53 175.65c0 15.25-11.68 38.59-26.09 38.59s-26.09-23.34-26.09-38.59S86 148 100.44 148s26.09 12.39 26.09 27.65z" class="B"/><path d="M100.44 218.52s-4.72 5.48-4.72 17.88 15.15 16.32 12.43 36.91-17.49 22.14-19.82 36.13 6.61 18.26 6.61 18.26"/><use xlink:href="#G" x="-337.22" y="132.64" class="B"/></g><path d="M118.763 165.808c1.471-2.62-.523-6.532-4.453-8.738s-8.307-1.871-9.778.749.523 6.532 4.452 8.738 8.308 1.871 9.779-.749z" class="E"/><g class="F G"><path d="M420.24 178.41c0 15.25-11.68 38.59-26.09 38.59s-26.09-23.34-26.09-38.59 11.68-27.63 26.09-27.63 26.09 12.37 26.09 27.63z" class="C"/><path d="M394.15 221.28s-4.73 5.45-4.73 17.88 15.16 16.32 12.44 36.91-17.49 22.14-19.86 36.13 6.61 18.26 6.61 18.26"/><path d="M394.15 217s-5.12 7-3.95 8.56 5.83 1.95 6.22-.39-2.27-8.17-2.27-8.17z" class="C"/></g><path d="M412.47 168.56c-1.47 2.62-5.85 2.95-9.78.75s-5.92-6.12-4.45-8.74 5.85-2.95 9.77-.75 5.93 6.12 4.46 8.74z" class="E"/><g class="F G"><path d="M163.541 159.254c4.03-4.03 4.03-10.565 0-14.595s-10.565-4.03-14.595 0-4.03 10.565 0 14.595 10.564 4.03 14.595 0z" class="B"/><path d="M198.237 85.809a10.32 10.32 0 0 0-5.716-13.428c-5.287-2.129-11.299.43-13.429 5.717s.43 11.299 5.717 13.429a10.32 10.32 0 0 0 13.428-5.717z" class="E"/><path d="M267.51 65.01a10.32 10.32 0 0 0 0-20.64 10.32 10.32 0 0 0 0 20.64z" class="B"/><path d="M323.51 118.8a10.32 10.32 0 0 0 10.32-10.32c0-5.699-4.62-10.32-10.32-10.32s-10.32 4.621-10.32 10.32a10.32 10.32 0 0 0 10.32 10.32z" class="E"/></g><path d="M173.109 284.233l-24.12-24.313 96.31 9.697 6.083 16.529-78.273-1.913z" class="B"/><path d="M251.382 286.587l-78.282-1.913c-.056 0-.111-.011-.163-.032a.42.42 0 0 1-.137-.091l-24.111-24.323a.44.44 0 0 1-.088-.502c.039-.082.103-.149.182-.193a.44.44 0 0 1 .259-.054l96.31 9.697a.44.44 0 0 1 .227.087c.065.05.115.118.143.195l6.083 16.538a.45.45 0 0 1 .02.209c-.009.07-.034.138-.073.197a.46.46 0 0 1-.163.137c-.064.032-.135.048-.207.048zm-78.088-2.786l77.453 1.887-5.765-15.666-94.812-9.547 23.124 23.326z" class="C"/><path d="M249.707 269.052l-76.598 15.181-1.208 119.019 77.251-2.018.555-132.182z" class="B"/><path d="M171.901 403.693c-.116-.003-.227-.05-.309-.132a.43.43 0 0 1-.1-.145c-.022-.055-.033-.113-.032-.173l1.208-119.01c0-.102.035-.2.099-.279s.154-.133.253-.153l76.599-15.181c.065-.012.132-.01.196.007a.44.44 0 0 1 .174.09c.05.043.089.096.117.155a.46.46 0 0 1 .042.189l-.555 132.172c.001.058-.01.115-.031.169s-.053.102-.093.143a.44.44 0 0 1-.141.096c-.053.022-.11.033-.167.033l-77.251 2.019h-.009zm1.639-119.099l-1.19 118.2 76.361-1.984.555-131.22-75.726 15.004z" class="C"/><path d="M338.436 286.402l31.498-23.899-98.796 8.533-19.756 15.11 87.054.256z" class="B"/><path d="M338.436 286.843l-87.054-.256c-.093 0-.183-.029-.259-.083s-.133-.129-.164-.217a.46.46 0 0 1-.001-.27c.027-.088.079-.166.151-.223l19.782-15.11c.067-.05.146-.081.229-.089l98.788-8.533a.42.42 0 0 1 .449.282.43.43 0 0 1 .015.279c-.025.093-.08.174-.156.232l-31.498 23.899a.41.41 0 0 1-.282.089zm-85.758-1.138l85.608.256 30.167-22.92-97.148 8.383-18.627 14.281z" class="C"/><path d="M249.707 269.052l88.729 17.35 1.058 116.744-90.342-1.912.555-132.182z" class="B"/><path d="M339.494 403.587l-90.342-1.913c-.116-.002-.225-.049-.306-.132a.44.44 0 0 1-.126-.308l.555-132.181c0-.065.014-.128.042-.186s.067-.109.117-.149a.43.43 0 0 1 .169-.091c.063-.017.129-.019.192-.006l88.729 17.349c.101.018.193.072.259.15s.102.179.103.282l1.058 116.745c-.004.118-.051.231-.133.317-.086.08-.199.125-.317.123zm-89.919-2.785l89.452 1.895-1.049-115.934-87.848-17.173-.555 131.212z" class="C"/><path d="M249.707 269.053l33.817-44.325 84.859 22.25-29.947 39.424-88.729-17.349z" class="B"/><path d="M338.436 286.842h-.088l-88.729-17.357c-.073-.014-.142-.046-.199-.094s-.101-.11-.127-.18-.032-.145-.022-.219a.46.46 0 0 1 .084-.204l33.816-44.325c.053-.068.124-.12.206-.148s.169-.032.253-.01l84.858 22.25c.072.016.139.05.193.1s.094.112.116.182.03.14.019.211a.44.44 0 0 1-.081.195l-29.973 39.423c-.038.051-.088.093-.144.124s-.118.048-.182.052zm-87.953-18.08l87.768 17.155 29.382-38.674-83.942-22.039-33.208 43.558z" class="C"/><path d="M173.109 284.233l-25.671-38.286 72.957-20.699 29.312 43.804-76.598 15.181z" class="B"/><g class="C"><path d="M173.109 284.674a.45.45 0 0 1-.21-.05c-.065-.034-.12-.084-.161-.144l-25.662-38.286c-.038-.058-.063-.124-.072-.192a.46.46 0 0 1 .019-.205c.024-.065.063-.123.114-.171a.45.45 0 0 1 .177-.102l72.958-20.699c.09-.026.187-.023.275.009a.45.45 0 0 1 .219.167l29.303 43.814a.43.43 0 0 1 .074.198c.008.072-.002.144-.03.211s-.07.125-.126.17-.121.077-.192.091l-76.607 15.18-.079.009zm-24.966-38.471l25.168 37.545 75.665-14.986-28.766-42.994-72.067 20.435zm23.758 157.049l91.294 2.257 75.065-3.129-89.108-1.146-77.251 2.018z"/><path d="M263.213 405.95l-91.321-2.257a.45.45 0 0 1-.432-.44.44.44 0 0 1 .126-.309c.081-.082.191-.13.306-.132l77.251-2.019 89.126 1.146c.114.004.223.053.303.135a.45.45 0 0 1 .129.306.44.44 0 0 1-.423.441l-75.065 3.129zm-73.945-2.715l73.936 1.834 58.871-2.451-72.932-.943-59.875 1.56zm55.449-193.377V196c2.88-3.037 5.515-6.297 7.881-9.75 2.28-3.317 4.142-6.903 5.545-10.675 1.356-3.642 2.049-7.496 2.046-11.381 0-2.81-.491-4.867-1.473-6.171s-2.45-1.805-4.407-1.499c-.799.093-1.572.344-2.273.739a6.04 6.04 0 0 0-1.809 1.562c-1.047 1.401-1.582 3.118-1.516 4.866-.017 1.004.096 2.005.335 2.98l.714 2.724-13.003 5.148c-.442-1.482-.796-2.989-1.058-4.513a27.93 27.93 0 0 1-.379-4.655c0-6.277 1.66-11.434 4.981-15.471s8.084-6.483 14.29-7.335c6.318-.87 11.19.37 14.616 3.72s5.134 8.563 5.122 15.639c.02 4.357-.652 8.69-1.992 12.836a48.72 48.72 0 0 1-5.739 11.786 74.78 74.78 0 0 1-8.878 10.914v10.578l-13.003 1.816zm-.476 22.921V217.07l14.052-1.94v15.727l-14.052 1.922zm80.319-63.243h-27.222c-.117 0-.229-.047-.312-.129a.44.44 0 0 1 0-.624c.083-.082.195-.129.312-.129h27.249a.44.44 0 0 1 .441.441c-.002.06-.015.119-.039.174a.46.46 0 0 1-.102.145c-.044.041-.095.073-.151.094a.46.46 0 0 1-.176.028zm-106.677 0h-27.214c-.117 0-.229-.047-.312-.129a.44.44 0 0 1-.129-.312c0-.117.047-.229.129-.312a.44.44 0 0 1 .312-.129h27.249c.117 0 .229.047.312.129a.44.44 0 0 1 .129.312c0 .061-.012.121-.037.177a.45.45 0 0 1-.26.241c-.057.02-.118.028-.179.023zm70.913-15.427a.44.44 0 0 1-.258-.084c-.075-.054-.131-.13-.161-.218a.44.44 0 0 1 .154-.492l16.829-12.624a.45.45 0 0 1 .617.088c.07.094.1.211.084.327a.44.44 0 0 1-.172.29L289.06 154.02c-.075.059-.169.091-.264.089zm-68.709 47.657a.44.44 0 0 1-.258-.083c-.075-.055-.131-.131-.16-.219a.43.43 0 0 1-.003-.27c.028-.089.082-.166.156-.222l16.829-12.624a.44.44 0 0 1 .327-.083c.116.016.22.078.29.172a.45.45 0 0 1 .081.326c-.017.115-.077.219-.169.291l-16.829 12.624a.51.51 0 0 1-.264.088zm8.057-56.42a.5.5 0 0 1-.264-.088l-16.82-12.624a.44.44 0 0 1-.14-.282c-.011-.108.019-.216.084-.304a.44.44 0 0 1 .576-.119l16.829 12.624a.44.44 0 0 1 .115.128.47.47 0 0 1 .057.162c.008.057.005.116-.01.172s-.039.108-.074.155a.42.42 0 0 1-.155.132c-.061.03-.129.046-.198.044zm68.718 47.675a.44.44 0 0 1-.265-.088l-16.829-12.615a.45.45 0 0 1-.088-.618.44.44 0 0 1 .617-.088l16.829 12.615a.44.44 0 0 1-.068.746c-.061.031-.128.047-.196.048zm-41.019-55.909a.44.44 0 0 1-.441-.441v-18.23a.44.44 0 0 1 .441-.441c.117 0 .229.046.311.129a.44.44 0 0 1 .129.312v18.23a.44.44 0 0 1-.129.312c-.082.083-.194.129-.311.129z"/></g><defs ><path id="B" d="M423.44 154.49C410.38 120.61 384.29 98 353 80c-68-39-116-44-162-8S105 177 76 192s-52 34-50 91 43 47 48 93 37 83 90 93 70-28 117-36 54 18 115 10 80-111 68-168a451.8 451.8 0 0 0-27.59-86c-4.85-11.1-8.53-23-12.97-34.51z"/><path id="C" d="M339.15 136.92l-.92 3.23 5.99 1.84.46-6.45-5.53 1.38z"/><path id="D" d="M360.82 163.2l-4.15.92 2.31 4.61 4.15-.92-2.31-4.61z"/><path id="E" d="M83.16 123.9l5.36-6.27-6.82-1.22 1.46 7.49z"/><path id="F" d="M268.76 317.55l6.15-1.8-3.36-5.58-5.03 3.02 2.24 4.36z"/><path id="G" d="M437.66 81.6s-5.11 7-4 8.56 5.83 1.94 6.22-.39-2.22-8.17-2.22-8.17z"/></defs></svg>