<svg xmlns="http://www.w3.org/2000/svg" xmlns:xlink="http://www.w3.org/1999/xlink" width="320" height="320" fill="none" xmlns:v="https://vecta.io/nano"><style><![CDATA[.B{stroke-miterlimit:10}.C{stroke-width:.75}.D{fill:#fff}.E{stroke:#263238}.F{fill:#263238}.G{fill:#27bfab}.H{stroke-width:.5}]]></style><use xlink:href="#B" class="G"/><g class="D"><use xlink:href="#B" opacity=".7"/><path opacity=".32" d="M257.363 43.783c-6.707-6.004-13.984-11.339-21.728-15.93l-63.885 96 86.81-78.97c-.39-.371-.787-.723-1.197-1.101zm-57.171-29.824c-9.962-2.075-20.2-2.466-30.291-1.158l1.849 111.046 28.442-109.887zm-66.957 13.216c-6.101 4.285-11.685 9.263-16.64 14.835l-5.344 5.837 60.506 76.012-38.522-96.684zM80.826 75.955c-4.149 3.215-8.457 6.218-12.909 8.998C58.336 90.88 48 95.277 38.304 102.835l133.446 21.024-90.924-47.904zM7.61 164.358c-1.171 17.325 2.112 36.077 8.467 53.037l155.673-93.536L7.61 164.358zm164.14-40.499L60.614 270.95c16.166 7.04 35.603 8.32 55.744 6.772l55.392-153.863zm0 0l5.287 144.179c11.424-1.222 25.376-.844 39.827-1.465L171.75 123.859zm124.762 99.904L171.75 123.859l97.14 130.951c11.308-6.33 21.03-16.052 27.622-31.047zm5.28-86.163L171.75 123.859l133.844 48.467a276.49 276.49 0 0 0-3.802-34.726zM280.73 73.805l-108.98 50.054 120.416-24.115c-3.078-8.952-6.903-17.629-11.436-25.939z"/><g class="B C E"><path d="M284.544 214.579s-6.906-2.336-8.96-3.763-7.309-6.701-8.531-10.765a62.36 62.36 0 0 1-2.093-11.475c-.307-3.149-1.626-3.962-3.558-1.523s-2.56 6.4-2.029 8.96 2.131 5.485 1.92 5.997-.512 1.523-.512 1.523-6.195-.711-9.645-1.523-6.195-1.12-6.4.505.506 4.167.71 5.895 2.842 9.344 4.167 11.065a21.48 21.48 0 0 0 3.245 3.661c.812.608.812 1.114 2.745 1.318a44.52 44.52 0 0 1 4.877.711c.71.205 1.421.915 4.774.813a51.24 51.24 0 0 0 6.292-.608l10.054 3.75 2.944-14.541z"/><path d="M281.293 212.646l-4.167 18.08 6.81 2.74 3.45-18.784-6.093-2.036z"/></g></g><path d="M298.445 216.102l-13.293-3.251-4.877 21.53 18.093 8.441.077-1.632v-25.088z" class="B C E F"/><path d="M260.371 204.422l-.915 6.778c0 1.28 2.842 4.877 3.84 5.075" class="B C E"/><g class="D"><path d="M258.336 218.24s1.427.506 1.018 1.728-3.456 2.944-4.877 3.757-1.92.71-3.552-.205a4.39 4.39 0 0 1-2.035-2.438c1.023-.026 2.044-.127 3.052-.301l6.394-2.541z" class="B C E"/><path d="M246.656 215.59s0 4.672 1.12 5.082c1.069.413 2.207.619 3.354.608.71-.102 5.484-1.728 6.4-2.336s1.83-1.92 1.324-3.149l-.512-1.216c-1.543.265-3.106.399-4.672.403-2.56 0-6.803-.812-7.11-.505s.096 1.113.096 1.113z" class="B C E"/><path d="M245.12 209.28a1.33 1.33 0 0 0-.474.527c-.107.215-.153.456-.134.695 0 .916-1.216 3.655.205 4.57s5.888 1.626 6.803 1.626 6.298-1.92 6.803-2.132.512-2.035.307-2.745-2.028-.915-2.028-.915-7.808-.186-11.482-1.626z" class="B C E"/><use xlink:href="#C"/></g><g class="B C E"><use xlink:href="#C"/><g class="D"><path d="M264.32 57.523s-6.982 2.118-9.459 2.144-9.85-1.197-13.203-3.795c-3.052-2.426-5.868-5.135-8.41-8.09-2.08-2.387-3.629-2.278-3.782.826s1.657 6.682 3.552 8.454 4.921 3.2 5.056 3.75.473 1.536.473 1.536-5.453 3.027-8.736 4.371-5.689 2.701-4.909 4.141 2.836 3.091 4.007 4.378 7.75 5.939 9.83 6.579c1.544.539 3.143.902 4.768 1.082 1.018 0 1.28.435 3.002-.518 1.414-.837 2.876-1.592 4.377-2.259.698-.25 1.69-.083 4.352-2.118 1.674-1.287 3.267-2.676 4.768-4.16l10.368-2.797-6.054-13.523z"/><path d="M260.544 57.843l7.136 17.126 7.13-1.728-8.128-17.293-6.138 1.894z"/></g><path d="M276.506 50.675l-12.704 5.088 8.563 20.346 19.622-3.661-.883-1.37-14.598-20.403z" class="F"/><path d="M238.72 63.36l3.2 6.067c.749 1.075 5.12 2.31 6.093 1.882"/><g class="D"><path d="M245.12 75.744s1.453-.416 1.83.813-1.094 4.403-1.779 5.894-1.152 1.702-3.008 1.92a4.36 4.36 0 0 1-3.072-.8 20.29 20.29 0 0 0 2.304-2.022l3.725-5.805z"/><path d="M234.093 80.391s2.713 3.802 3.84 3.482a9.19 9.19 0 0 0 3.085-1.453c.518-.499 3.456-4.595 3.84-5.626s.364-2.63-.756-3.328l-1.12-.698c-1.101 1.114-2.294 2.136-3.564 3.053-2.068 1.472-6.01 3.296-6.08 3.718s.755.851.755.851z"/><path d="M229.184 76.16c-.089.224-.115.467-.077.705a1.33 1.33 0 0 0 .295.645c.531.742 1.132 3.68 2.822 3.597s5.76-2.106 6.483-2.637 3.994-5.235 4.295-5.696-.775-1.92-1.351-2.406-2.182.442-2.182.442-6.509 4.378-10.285 5.35z"/></g></g><use xlink:href="#D" class="D"/><g class="B C E"><use xlink:href="#D"/><g class="D"><path d="M40.858 212.282s6.906-2.336 8.96-3.757 7.29-6.707 8.506-10.765a61.78 61.78 0 0 0 2.138-11.475c.301-3.149 1.626-3.962 3.552-1.523s2.56 6.4 2.029 8.96-2.131 5.484-1.92 5.99a19.57 19.57 0 0 1 .506 1.523s6.195-.71 9.651-1.523 6.195-1.12 6.4.506-.512 4.166-.71 5.894-2.848 9.344-4.166 11.072c-.94 1.338-2.031 2.565-3.251 3.654-.813.64-.813 1.12-2.739 1.319-1.637.149-3.265.387-4.877.71-.71.205-1.421.915-4.774.813a50.94 50.94 0 0 1-6.298-.608l-10.054 3.757-2.95-14.547z"/><path d="M44.109 210.349l4.16 18.08-6.803 2.745-3.456-18.79 6.099-2.035z"/></g><path d="M26.95 213.805l13.293-3.252 4.877 21.53-18.086 8.442-.083-1.632v-25.088z" class="F"/><path d="M65.03 202.125l.915 6.803c0 1.318-2.848 4.877-3.84 5.082"/><g class="D"><path d="M67.059 215.936s-1.421.512-1.018 1.728 3.456 2.944 4.877 3.757 1.92.71 3.558-.205a4.34 4.34 0 0 0 2.029-2.432c-1.022-.025-2.04-.128-3.046-.307l-6.4-2.541z"/><path d="M78.72 213.299s0 4.672-1.114 5.075a8.94 8.94 0 0 1-3.354.64c-.71-.102-5.485-1.721-6.4-2.336s-1.83-1.92-1.318-3.148l.506-1.217a28.03 28.03 0 0 0 4.672.404c2.56 0 6.803-.813 7.11-.506s-.102 1.088-.102 1.088z"/><path d="M80.262 207.002c.211.12.384.299.497.514s.163.459.143.702c0 .915 1.222 3.654-.198 4.569s-5.926 1.613-6.842 1.613-6.298-1.92-6.803-2.131-.506-2.035-.301-2.746 2.029-.909 2.029-.909 7.821-.192 11.475-1.612z"/></g></g><use xlink:href="#E" class="D"/><g class="B C E"><use xlink:href="#E"/><g class="D"><path d="M48.365 63.603s6.976 2.118 9.459 2.144 9.843-1.197 13.203-3.795a61.95 61.95 0 0 0 8.41-8.09c2.08-2.387 3.629-2.278 3.776.826s-1.658 6.682-3.546 8.454-4.928 3.2-5.056 3.75-.474 1.536-.474 1.536 5.453 3.021 8.736 4.371 5.69 2.694 4.909 4.134-2.835 3.091-4.006 4.378-7.75 5.946-9.83 6.586c-1.543.539-3.143.902-4.768 1.082-1.018 0-1.28.435-3.002-.525a45.81 45.81 0 0 0-4.378-2.259c-.698-.243-1.69-.083-4.358-2.112-1.671-1.288-3.261-2.677-4.762-4.16L42.31 77.126l6.054-13.523z"/><path d="M52.134 63.923L44.998 81.05l-7.13-1.728 8.128-17.293 6.138 1.894z"/></g><path d="M36.173 56.755l12.704 5.088-8.563 20.346-19.622-3.661.883-1.376 14.598-20.397z" class="F"/><path d="M73.939 69.408l-3.2 6.061c-.749 1.069-5.12 2.31-6.093 1.92"/><g class="D"><path d="M67.552 81.824s-1.453-.416-1.83.813 1.094 4.403 1.779 5.888 1.152 1.702 3.008 1.92c1.088.125 2.183-.16 3.072-.8a20.28 20.28 0 0 1-2.304-2.022l-3.725-5.798z"/><path d="M78.586 86.47s-2.72 3.802-3.84 3.482a9 9 0 0 1-3.085-1.459c-.518-.493-3.456-4.595-3.84-5.619s-.358-2.637.762-3.328l1.12-.698a27.44 27.44 0 0 0 3.565 3.046c2.067 1.478 6.01 3.302 6.08 3.725s-.762.851-.762.851z"/><path d="M83.488 82.234c.091.223.119.467.082.705s-.138.461-.293.646c-.531.742-1.139 3.68-2.822 3.597s-5.76-2.106-6.483-2.637-4-5.235-4.294-5.696.768-1.92 1.35-2.406 2.182.435 2.182.435 6.477 4.403 10.278 5.357z"/></g></g><use xlink:href="#F" class="D"/><g class="E B"><g class="C"><use xlink:href="#F"/><path d="M142.08 156.384s-4.48 19.622-4.659 28.851.333 42.49.505 49.626 3.309 30.297 3.309 32.384.525 6.093.525 6.093l-1.395 7.488a29.24 29.24 0 0 1-4.352 2.784c-3.136 1.74-6.791 4.006-7.834 5.222a1.2 1.2 0 0 0-.262.51c-.046.188-.045.385.001.573s.137.362.265.508a1.21 1.21 0 0 0 .47.329c1.241.486 2.549.782 3.878.877 2.957.173 7.834.173 10.445-.525s4.704-2.957 5.92-3.84l1.222-.87.173 1.92a16.93 16.93 0 0 0 1.741-.352 16.18 16.18 0 0 0 3.654-1.562s.173-2.963.173-4.704-.87-4.877-1.043-5.568 0-6.97-.518-9.056-.871-1.568-1.223-5.395 2.784-40.051 2.611-41.095 4.429-32.422 4.429-32.422 8.8 40.96 11.584 48.8 4.179 22.982 4.179 24.032 1.568 13.402 2.266 15.149 2.611 7.136 2.611 7.136 2.784 4.179 4 6.265 5.402 3.84 8.531 4.352 5.575.698 5.76-3.481-1.388-6.963-4.006-8.877-3.13-3.654-3.13-3.654a51.81 51.81 0 0 0 0-7.68c-.352-2.964-2.265-5.229-2.438-11.322s-1.395-38.131-2.438-43.181-2.42-38.829-2.247-43.52-.441-17.798-.441-17.798l-42.394-.48.128 2.483z" class="F"/><path d="M158.72 86.234s-6.47 3.84-11.053 6.106-10.176 3.584-10.745 4.87-10.458 22.355-12.32 25.216-6.304 8.454-5.447 11.603 4.442 7.449 6.733 7.168 6.88-1.581 8.742-4.871 6.304-13.9 6.304-13.9.717 9.888.57 14.758-.141 8.883-.429 11.315-1.574 5.447-1.005 6.304 1.28 1.722 2.01 1.581 11.462-.288 14.72-.147 18.195 0 21.35.147 5.876-1.434 6.157-2.01.864-1.433.576-4.582.288-12.749 1.146-16.474 6.016-18.054 6.016-18.054 13.613 10.746 16.48 11.603 10.598-.429 13.177-3.577 3.437-5.594 1.863-7.738-7.309-4.154-13.325-10.605-8.32-9.453-12.461-11.462-12.608-4.723-14.617-5.587-2.56-1.28-3.84-1.862-4.301-1.715-9.888-1.862c-3.67.001-7.306.7-10.714 2.061z" class="G"/><path d="M138.042 112.275l2.886 10.151-3.968-7.866m55.11.704c-.595 0-6.227-3.2-6.227-3.2m-2.867-.378s2.272 2.964 4.25 3.552"/><path d="M157.914 95.021l1.798 6.79-6.592 33.28c-.546 2.904-.913 5.839-1.101 8.787l4.992 9.888 6.298-10.688-.8-24.268c-.199-10.784.198-16 .096-16.282s6.297-4.998 6.297-4.998 3.693-4.096 3.892-4.794-2.592.198-3.2.8c-.681.576-1.487.984-2.354 1.192a5.7 5.7 0 0 1-2.638.005c-2.599-.499-5.997-3.392-6.496-1.997a3.78 3.78 0 0 0-.192 2.285z" class="F"/><path d="M162.208 83.437c-.301.198-2.694.8-3.494 2.797s-4.896 11.187-6.093 12.685.697.896 2.297-.102 2.996-4.89 3.892-3.2 3.5 2.394 3.5 2.394 5.389-.998 6.592-1.798c.82-.572 1.589-1.215 2.298-1.92 0 0 4.595 6.893 5.888 7.488s1.504-.397 1.6-1.497a82.23 82.23 0 0 1 2.298-11.885c1.28-4.294-1.197-5.696-2.797-7.488s-3.399-.602-5.191-.403-10.79 2.931-10.79 2.931z" class="G"/><path d="M159.469 52.678s-3.123 4.742-2.56 5.894.576 2.662 0 3.469a4.86 4.86 0 0 0-.933 1.808c-.18.662-.217 1.354-.11 2.032.23 1.965-.922 11.904.812 13.062a15.93 15.93 0 0 0 3.578 1.734s1.965 16.64 2.662 16.179S173.568 86.202 174.72 84s2.56-5.312 2.56-5.312 3.93-7.514 6.24-10.637 4.973-8.896 4.166-11.904-4.972-5.203-6.937-6.822-.691-5.312-3.469-7.162-6.125-2.31-8.32-1.504-2.31 2.56-4.973.806-5.197-3.462-9.241-1.498-4.858 8.896-2.432 10.746 7.155 1.965 7.155 1.965z" class="D"/><path d="M180.736 49.325c-1.965-1.613-.691-5.312-3.469-7.162s-6.125-2.31-8.32-1.504-2.31 2.56-4.973.806-5.196-3.462-9.241-1.498-4.858 8.896-2.432 10.746 7.168 1.965 7.168 1.965 3.469-1.619 5.76-2.886 7.513.806 8.435 1.619-.461.23-.691 1.728 2.656 3.936 3.929 5.12-.23 1.965-.576 3.469 1.037 2.08 1.85 1.504 3.347-3.84 4.275-1.965 2.311 4.621-.23 6.586-4.397 1.504-4.397 1.504-.826 5.005 1.574 5.395a74.7 74.7 0 0 1 4.09-6.669c2.317-3.117 4.973-8.896 4.166-11.904s-4.953-5.235-6.918-6.854z" class="F"/></g><path d="M165.709 58.803c.737-.275 1.524-.393 2.31-.346m-8.224 1.485c-.57.121-1.121.319-1.638.589" class="H"/><path d="M159.834 56.787a3.77 3.77 0 0 1 .339 2.56c-.378 1.28-3.955 4.077-3.911 4.621s2.1 1.683 2.061 2.144-.166 1.222-.166 1.222" class="C"/><path d="M167.654 60.403c.417 0 .756-.416.756-.928s-.339-.928-.756-.928-.755.416-.755.928.338.928.755.928z" class="F H"/><path d="M166.182 60.992c1.017-.425 2.1-.668 3.2-.717" class="C"/><path d="M163.514 55.424s2.476-2.298 4.396-1.837 2.65 2.31 2.343 2.317-1.28-1.421-2.33-1.53-1.798.39-2.707.851-1.466.781-1.702.198zM160 57.248a1.15 1.15 0 0 0-.179-.436 1.14 1.14 0 0 0-.785-.483c-.157-.021-.317-.009-.47.036-1.132.173-1.99 2.234-1.644 2.208s.723-1.325 1.606-1.446 1.472 1.261 1.472.122z" class="F H"/><path d="M158.08 69.946l4.166-.506c2.356-.294 5.671-.755 6.221-2.438.314-.815.455-1.687.416-2.56m-1.273-.128a7.21 7.21 0 0 1 2.06.128" class="C"/><path d="M177.312 72.621a6.24 6.24 0 0 1-2.56 3.84c-2.099 1.338-17.517 2.867-17.005 3.059s2.515 1.152 2.515 1.152l.602 5.472a36.95 36.95 0 0 1 8.032-5.414c5.107-2.65 8.294-3.526 8.416-8.109z" class="F H"/><path d="M185.914 147.354l-3.584-.282c-.717-.141-3.008-2.298-4.013-2.15s-2.861 2.15-3.578 3.84l-1.005 2.56s-2.56 2.291-1.28 3.84 2.727 1.004 2.727 1.004.857 1.434 2.003 1.575a24.33 24.33 0 0 0 2.56.147 6.73 6.73 0 0 0 2.291.288c.612-.134 1.195-.377 1.722-.717.608.071 1.22-.084 1.721-.435.525-.416 3.066-3.014 4.378-4.352l.774-.8-4.716-4.518z" class="C D"/></g><use xlink:href="#G" class="G"/><g class="B C E"><use xlink:href="#G"/><path d="M189.21 143.488s1.28 6.304 5.728 6.304"/><g class="D"><path d="M126.784 97.069l.89 7.309a7.82 7.82 0 0 0 .985 3.257l-4.838 10.669c-.199.301-5.037 9.382-5.831 10.464s-2.662 4.544-1.478 6.72 3.059 6.618 5.53 6.714 5.926-1.383 8.32-2.765 3.161-2.272 3.36-6.221.096-11.059.793-14.816 1.184-7.68 1.677-9.184 3.36-.986 4.346-1.581 1.875-1.875 3.654-2.669a8.7 8.7 0 0 1 4.838-.39c.596.198 1.677-.691 1.383-1.779s-2.272-1.677-4.25-1.485-3.75.794-4.243.499-.986-5.536-.986-5.536l-9.484.691c-2.445.096-4.666.102-4.666.102z"/><path d="M137.645 93.216l.102 7.11a1 1 0 0 0 .326.729.99.99 0 0 0 .351.207c.13.045.268.061.405.05.499-.096 1.779.397 2.08-1.082s.883-5.632.589-6.617-2.964-1.382-3.853-.397z"/><path d="M137.645 93.216s-3.155-.787-4.045-.294.493 7.507.589 8.096 1.485.889 2.073.691 1.485-.589 1.485-1.383l-.102-7.11z"/><path d="M132.909 93.12s-2.074-.397-2.669.294-.787 1.677-.595 3.456c.261 1.751.794 3.451 1.581 5.037.396.595 1.683.691 2.47.397s.493-1.28.493-1.28-.397-.397-.493-3.456l-.096-4.64-.691.192z"/><path d="M129.453 94.304c-.397.096-2.867.198-2.963 1.184s.787 5.632 1.184 6.125 1.478.294 1.875.096 1.088-.493.985-1.088l-1.081-6.317z"/></g><path d="M130.24 113.856c-.709-.113-1.377-.408-1.938-.857a4.15 4.15 0 0 1-1.262-1.703l-3.2 7.04c-.198.294-5.037 9.382-5.83 10.464s-2.663 4.544-1.479 6.72 3.059 6.617 5.53 6.713 5.926-1.382 8.32-2.764 3.161-2.272 3.36-6.221.096-11.059.793-14.816l.896-5.35a14.13 14.13 0 0 1-5.19.774z" class="G"/></g><path d="M134.784 102.995s-1.683 1.479-1.875 2.765a3.77 3.77 0 0 0 .493 2.368" class="D"/><path d="M134.784 102.995s-1.683 1.479-1.875 2.765a3.77 3.77 0 0 0 .493 2.368" class="B C E"/><defs ><path id="B" d="M305.715 177.062s-.045-90.195-48.352-133.273C214.72 5.76 156.013-1.965 116.589 42.01c-14.048 15.667-31.034 32-48.679 42.944-19.776 12.275-42.88 17.881-56.365 58.521s7.386 100.243 37.965 121.344 78.496 13.261 119.68 4.435 132.935 19.732 136.525-92.192z"/><path id="C" d="M247.776 203.098l3.84 2.643 4.979 1.728s.64.301.64 1.523c-.011.527-.211 1.031-.564 1.423s-.833.642-1.356.708c-1.011.205-4.672.813-5.99.307a41.22 41.22 0 0 1-5.178-3.046c-.915-.64-1.017-1.427-.512-2.56a29.51 29.51 0 0 0 1.12-3.354"/><path id="D" d="M227.731 69.581l4.672-.096 5.056-1.491s.672-.109 1.383.883a2.18 2.18 0 0 1-.333 2.854c-.704.762-3.322 3.379-4.691 3.738a41.83 41.83 0 0 1-5.991.538c-1.094 0-1.651-.57-1.92-1.773-.281-1.144-.629-2.27-1.043-3.373"/><path id="E" d="M77.626 200.806l-3.84 2.637-4.979 1.728s-.64.307-.64 1.523a2.19 2.19 0 0 0 1.92 2.132c1.018.204 4.672.812 5.997.307a41.15 41.15 0 0 0 5.197-3.053c.915-.608 1.018-1.421.506-2.56a30.13 30.13 0 0 1-1.114-3.354"/><path id="F" d="M84.947 75.661s-4.064.09-4.678-.096l-5.05-1.498s-.64-.102-1.382.89a2.19 2.19 0 0 0 .326 2.854c.71.755 3.328 3.379 4.698 3.738a40.86 40.86 0 0 0 5.99.531c1.094.038 1.651-.563 1.888-1.766a30.27 30.27 0 0 1 1.043-3.379"/><path id="G" d="M209.837 117.843s-5.299 5.875-7.04 8.736a140.9 140.9 0 0 1-9.024 12.608c-2.003 2.291-9.024 7.885-9.024 7.885s2.144 4.582 3.725 5.299c.919.423 1.877.758 2.86.999l5.76-4.295 16.64-13.037c5.76-4.716 13.754-11.033 14.33-13.753s.141-4.154-2.72-6.304c-1.78-1.318-3.765-2.334-5.875-3.008"/></defs></svg>